<svg width="854" height="655" viewBox="0 0 854 655" fill="none" xmlns="http://www.w3.org/2000/svg">
<path d="M576.764 588.045L457.316 513.77C443.835 505.434 438.963 483.577 446.521 465.038L579.483 136.812C583.304 127.392 574.828 125.142 581.853 121.807C582.119 121.691 597.136 117.039 597.403 116.972C604.277 115.155 611.118 114.438 617.425 118.389L736.872 192.664C750.353 201 755.225 222.857 747.667 241.397L614.772 569.655C610.767 579.492 604.11 586.444 596.702 589.529C596.268 589.712 578.065 595.581 577.615 595.681C571.608 597.065 582.653 591.746 576.764 588.045Z" fill="url(#paint0_linear)"/>
<path style="mix-blend-mode:color-dodge" d="M735.42 193.047L615.956 118.773C609.6 114.821 726.294 195.131 726.294 195.131C739.775 203.467 744.647 225.341 737.106 243.864C737.106 243.864 609.249 579.842 613.254 570.005L746.216 241.78C753.724 223.29 748.918 201.417 735.42 193.047Z" fill="url(#paint1_radial)"/>
<path style="mix-blend-mode:screen" opacity="0.6" d="M563.482 592.18L444.019 517.905C430.554 509.569 425.665 487.712 433.223 469.172L566.202 140.947C573.71 122.408 590.712 114.172 604.194 122.608L723.641 196.882C737.122 205.218 741.994 227.076 734.453 245.615L601.474 573.84C593.966 592.33 576.947 600.549 563.482 592.18Z" fill="url(#paint2_radial)"/>
<path d="M560.379 593.313L440.915 519.039C427.45 510.703 422.562 488.845 430.12 470.306L563.099 142.081C570.607 123.541 587.609 115.305 601.09 123.741L720.554 197.949C734.035 206.285 738.907 228.159 731.366 246.682L598.354 574.907C590.846 593.413 573.827 601.749 560.379 593.313Z" fill="url(#paint3_linear)"/>
<path d="M433.357 472.573L566.486 143.948C573.16 127.693 587.976 120.474 599.855 127.826L718.685 201.701C730.498 209.036 734.736 228.176 728.146 244.415L594.95 573.04C588.276 589.295 573.443 596.514 561.58 589.179L442.767 515.304C431.004 507.952 426.766 488.829 433.357 472.573Z" fill="url(#paint4_linear)"/>
<path d="M438.446 474.707L570.907 147.732C576.413 134.128 588.894 128.093 598.788 134.245L715.065 206.619C724.959 212.771 728.413 228.776 722.99 242.38L590.529 569.255C585.023 582.86 572.542 588.912 562.648 582.76L446.371 510.452C436.477 504.317 432.923 488.378 438.446 474.707Z" fill="url(#paint5_linear)"/>
<path d="M698.864 199.95C696.094 206.786 689.17 209.42 683.397 205.819L618.326 165.372C612.536 161.771 610.1 153.318 612.87 146.482L599.071 137.896C589.761 132.111 578.582 136.362 574.044 147.383L440.064 478.009C435.609 489.046 439.53 502.683 448.857 508.485L562.448 579.109C571.758 584.894 582.937 580.659 587.475 569.622L721.422 238.98C725.893 227.943 721.972 214.305 712.645 208.52L698.864 199.95Z" fill="url(#paint6_linear)"/>
<path d="M569.022 161.037L547.982 212.721L659.604 281.644C661.436 282.784 663.496 283.511 665.639 283.773C667.781 284.035 669.955 283.826 672.008 283.16C674.062 282.495 675.945 281.389 677.526 279.921C679.107 278.452 680.347 276.656 681.161 274.658L690.888 250.784C692.2 247.551 692.328 243.96 691.251 240.642C690.173 237.324 687.96 234.492 684.999 232.644L569.022 161.037Z" fill="url(#paint7_linear)"/>
<path d="M550.985 303.518L544.145 320.34C542.49 324.396 542.326 328.907 543.682 333.073C545.038 337.239 547.826 340.79 551.553 343.097L653.564 406.352L674.604 354.668L577.982 294.748C575.684 293.326 573.104 292.422 570.421 292.098C567.738 291.775 565.017 292.039 562.447 292.874C559.877 293.709 557.52 295.094 555.541 296.932C553.561 298.77 552.007 301.018 550.985 303.518Z" fill="url(#paint8_linear)"/>
<path d="M485.447 365.337L464.391 417.021L580.234 488.495C582.133 489.675 584.267 490.426 586.487 490.697C588.707 490.968 590.959 490.751 593.086 490.062C595.214 489.373 597.165 488.228 598.804 486.708C600.443 485.187 601.73 483.328 602.575 481.259L611.869 458.368C613.235 455.019 613.374 451.295 612.259 447.854C611.145 444.413 608.85 441.476 605.779 439.562L485.447 365.337Z" fill="url(#paint9_linear)"/>
<path d="M704.537 322.724L713.513 300.567C715.101 297.314 717.799 294.736 721.122 293.297C724.175 292.13 725.726 293.481 724.575 296.315L715.549 318.472C713.97 321.727 711.268 324.303 707.94 325.725C704.937 326.892 703.402 325.558 704.537 322.724Z" fill="url(#paint10_linear)"/>
<path d="M706.305 325.308C704.987 325.308 705.07 323.907 705.538 322.74L714.514 300.583C715.956 297.672 718.37 295.354 721.338 294.031C721.803 293.832 722.301 293.725 722.806 293.714C724.141 293.714 724.058 295.114 723.574 296.298L714.597 318.455C713.167 321.365 710.757 323.679 707.79 324.991C707.32 325.19 706.816 325.297 706.305 325.308Z" fill="url(#paint11_linear)"/>
<path style="mix-blend-mode:color-dodge" d="M706.672 323.324L715.649 301.166C717.085 298.251 719.5 295.932 722.473 294.614C722.895 294.449 723.339 294.348 723.791 294.314C723.718 294.117 723.582 293.949 723.404 293.838C723.226 293.726 723.016 293.677 722.806 293.697C722.301 293.708 721.803 293.816 721.338 294.014C718.37 295.338 715.956 297.655 714.514 300.566L705.538 322.74C705.07 323.907 704.987 325.291 706.305 325.308H706.472C706.305 324.643 706.376 323.941 706.672 323.324Z" fill="url(#paint12_radial)"/>
<g style="mix-blend-mode:multiply">
<path d="M712.579 208.52L698.864 199.95C696.094 206.786 689.17 209.42 683.397 205.819L618.326 165.372C612.536 161.771 610.1 153.318 612.87 146.482L599.071 137.896C589.761 132.111 578.582 136.362 574.044 147.383L440.064 478.009C435.609 489.046 439.53 502.683 448.857 508.485L562.448 579.109C571.758 584.894 582.937 580.659 587.475 569.622L721.422 238.98C725.827 227.943 721.905 214.305 712.579 208.52ZM585.59 569.589C584.361 572.803 582.243 575.602 579.483 577.658C577.168 579.35 574.359 580.235 571.491 580.176C568.788 580.086 566.159 579.268 563.883 577.808L450.259 507.185C441.366 501.65 437.595 488.595 441.916 478.059L575.863 147.416C578.566 140.747 583.955 136.696 589.961 136.812C592.665 136.903 595.293 137.72 597.57 139.18L610.651 147.316C608.181 154.552 610.784 162.888 616.807 166.639L681.878 207.102C683.692 208.253 685.787 208.882 687.935 208.92C690.234 208.926 692.495 208.335 694.496 207.203C696.497 206.072 698.169 204.44 699.348 202.467L711.16 209.803C720.054 215.338 723.824 228.409 719.503 238.946L585.59 569.589Z" fill="#BCBEC0"/>
</g>
<path d="M575.763 536.176L576.413 534.509L574.862 533.542L576.68 529.04C577.129 529.066 577.574 528.943 577.945 528.689C578.316 528.436 578.593 528.067 578.732 527.64C578.989 527.02 579.029 526.332 578.844 525.687C578.659 525.042 578.261 524.479 577.715 524.089C577.458 523.93 577.169 523.833 576.869 523.803C576.569 523.774 576.266 523.814 575.984 523.921C575.702 524.027 575.448 524.197 575.242 524.417C575.035 524.637 574.883 524.901 574.795 525.189C574.611 525.66 574.544 526.168 574.599 526.67C574.654 527.172 574.83 527.654 575.112 528.073L573.293 532.558L571.741 531.591L571.074 533.258C565.318 531.274 559.161 534.325 556.491 540.911C553.438 548.447 556.124 557.75 562.481 561.718C568.838 565.686 576.48 562.768 579.533 555.232C580.804 552.03 581.124 548.529 580.456 545.149C579.787 541.77 578.157 538.654 575.763 536.176ZM576.18 555.232C576.086 555.551 575.93 555.849 575.72 556.106C575.51 556.364 575.25 556.577 574.956 556.732C574.662 556.888 574.339 556.983 574.008 557.011C573.677 557.04 573.343 557.002 573.026 556.9C568.012 555.025 563.41 552.194 559.478 548.563C558.916 548.007 558.531 547.298 558.371 546.524C558.211 545.75 558.282 544.945 558.577 544.212L559.828 541.111C559.893 540.809 560.041 540.53 560.255 540.307C560.469 540.083 560.741 539.924 561.04 539.846C561.34 539.768 561.655 539.775 561.951 539.866C562.246 539.957 562.511 540.128 562.715 540.361C566.645 544.014 571.246 546.873 576.263 548.78C576.863 549.066 577.327 549.574 577.558 550.197C577.788 550.82 577.767 551.508 577.498 552.115L576.18 555.232ZM572.592 549.664C572.41 549.553 572.205 549.485 571.993 549.465C571.78 549.445 571.566 549.475 571.366 549.55C571.167 549.626 570.987 549.746 570.841 549.901C570.695 550.057 570.586 550.244 570.524 550.447C570.341 550.891 570.314 551.382 570.447 551.843C570.581 552.303 570.866 552.705 571.258 552.982C571.441 553.089 571.645 553.155 571.857 553.173C572.069 553.191 572.282 553.161 572.48 553.086C572.679 553.011 572.858 552.892 573.004 552.738C573.151 552.584 573.261 552.4 573.327 552.198C573.503 551.754 573.527 551.264 573.394 550.805C573.261 550.346 572.979 549.945 572.592 549.664ZM564.25 544.479C564.068 544.368 563.863 544.3 563.65 544.28C563.438 544.26 563.223 544.289 563.024 544.365C562.824 544.441 562.645 544.561 562.498 544.716C562.352 544.872 562.244 545.059 562.181 545.262C561.998 545.701 561.969 546.189 562.099 546.646C562.23 547.104 562.511 547.503 562.899 547.78C563.08 547.894 563.285 547.965 563.499 547.987C563.712 548.008 563.928 547.98 564.128 547.904C564.329 547.828 564.509 547.706 564.655 547.549C564.8 547.391 564.907 547.202 564.967 546.996C565.151 546.557 565.179 546.07 565.049 545.612C564.919 545.155 564.637 544.755 564.25 544.479Z" fill="url(#paint13_linear)"/>
<path style="mix-blend-mode:screen" d="M513.978 378.126L325.923 269.406L295.373 287.279C291.774 289.417 288.793 292.453 286.722 296.089C284.651 299.724 283.562 303.836 283.56 308.019V341.564C283.557 348.101 285.277 354.523 288.545 360.186C291.814 365.849 296.516 370.553 302.18 373.824L466.093 468.372C467.966 469.465 470.097 470.041 472.266 470.041C474.435 470.041 476.566 469.465 478.439 468.372L513.978 447.715V378.126Z" fill="url(#paint14_linear)"/>
<path d="M473.618 463.587L308.003 368.339C298.977 363.137 291.652 349.149 291.652 337.129V300.45C291.652 294.348 285.679 294.214 288.732 292.014C288.966 291.847 297.075 287.362 297.342 287.212C300.211 285.545 303.932 285.745 308.003 288.096L473.618 383.344C482.661 388.562 489.969 402.534 489.969 414.571V451.25C489.969 457.835 487.783 462.47 484.329 464.471L475.853 469.272C473 470.723 477.522 465.855 473.618 463.587Z" fill="url(#paint15_linear)"/>
<path d="M465.409 468.239L299.828 372.924C290.801 367.706 283.476 353.734 283.476 341.697V305.018C283.476 292.981 290.801 287.446 299.828 292.664L465.409 387.979C474.435 393.181 481.76 407.169 481.76 419.189V455.868C481.76 467.922 474.435 473.374 465.409 468.239Z" fill="url(#paint16_linear)"/>
<path style="mix-blend-mode:color-dodge" d="M467.978 386.278L302.397 290.963C297.809 288.313 293.671 288.446 290.718 290.797C293.498 290.459 296.309 291.108 298.66 292.631L464.241 387.945C473.267 393.147 480.592 407.135 480.592 419.156V455.835C480.592 461.753 478.823 466.088 475.953 468.355C480.959 467.522 484.296 462.353 484.296 454.167V417.489C484.329 405.468 476.954 391.48 467.978 386.278Z" fill="url(#paint17_radial)"/>
<path d="M355.438 344.581V348.532L460.87 408.819V404.868L355.438 344.581Z" fill="white"/>
<path d="M397.584 401.333L355.438 377.425V381.377L397.584 405.285V401.333Z" fill="white"/>
<path d="M420.843 398.332L355.438 361.003V364.954L420.843 402.283V398.332Z" fill="white"/>
<path d="M382.051 384.161L355.438 369.206V373.157L382.051 388.112V384.161Z" fill="white"/>
<path d="M385.938 386.411V390.363L439.797 421.29V417.338L385.938 386.411Z" fill="white"/>
<path d="M401.489 403.584V407.535L431.688 424.957V421.006L401.489 403.584Z" fill="white"/>
<path d="M424.731 404.518L460.87 425.241V421.29L424.731 400.566V404.518Z" fill="white"/>
<path d="M443.685 423.54L460.87 433.443V429.492L443.685 419.589V423.54Z" fill="white"/>
<path d="M355.438 356.735L460.87 417.022V413.07L355.438 352.784V356.735Z" fill="white"/>
<path d="M435.576 427.208L460.87 441.663V437.712L435.576 423.257V427.208Z" fill="white"/>
<path d="M355.438 389.579L460.87 449.866V445.915L355.438 385.628V389.579Z" fill="white"/>
<path d="M336.651 362.987C333.979 360.671 331.698 357.941 329.894 354.901C328.776 353.034 328.826 351.016 329.894 350.383C331.408 349.482 332.608 348.138 333.331 346.531C334.515 346.865 335.984 346.431 335.984 344.864C335.994 343.256 335.399 341.702 334.315 340.513C334.032 333.427 331.612 326.158 323.453 321.457C315.294 316.755 312.892 321.24 312.591 327.975C311.624 327.759 310.923 328.709 310.923 330.376C311.202 332.238 312.144 333.937 313.576 335.161C314.427 337.887 315.58 340.51 317.013 342.98C318.098 344.864 318.148 346.932 317.013 347.515C314.885 348.492 312.458 348.593 310.256 347.799C306.835 346.765 304.299 348.832 304.299 353.05V360.336C304.341 361.109 304.566 361.861 304.954 362.53C305.343 363.199 305.884 363.767 306.535 364.187L340.422 383.744C341.64 384.444 342.641 383.877 342.641 382.46V375.174C342.515 372.845 341.919 370.565 340.89 368.47C339.86 366.376 338.419 364.511 336.651 362.987Z" fill="white"/>
<path style="mix-blend-mode:color-dodge" d="M487.066 394.13C490.186 401.683 489.218 409.235 484.913 411.003C480.609 412.77 474.602 408.068 471.565 400.516C468.529 392.963 469.43 385.394 473.718 383.627C478.006 381.86 483.962 386.561 487.066 394.13Z" fill="url(#paint18_radial)"/>
<path style="mix-blend-mode:screen" d="M658.169 207.436L471.499 99.3501L444.803 115.555C441.204 117.693 438.223 120.729 436.152 124.365C434.081 128.001 432.992 132.112 432.99 136.296V169.84C432.991 176.379 434.713 182.802 437.985 188.464C441.256 194.127 445.961 198.83 451.627 202.101L614.138 296.032C616.011 297.125 618.142 297.7 620.311 297.7C622.48 297.7 624.611 297.125 626.485 296.032L658.186 277.042L658.169 207.436Z" fill="url(#paint19_linear)"/>
<path d="M621.663 291.23L457.483 196.615C448.44 191.414 441.132 177.426 441.132 165.405V128.726C441.132 122.624 435.159 122.491 438.196 120.29C438.446 120.123 446.538 115.639 446.822 115.489C449.675 113.821 453.412 114.021 457.483 116.372L621.663 211.053C630.706 216.272 638.014 230.243 638.014 242.28V278.959C638.014 285.628 635.828 290.18 632.374 292.18L623.898 296.982C621.079 298.316 625.6 293.497 621.663 291.23Z" fill="url(#paint20_linear)"/>
<path d="M613.487 295.882L449.291 201.2C440.264 195.982 432.94 182.011 432.94 169.973V133.295C432.94 121.257 440.264 115.722 449.291 120.941L613.487 215.622C622.514 220.824 629.838 234.812 629.838 246.832V283.511C629.838 295.565 622.514 301.083 613.487 295.882Z" fill="url(#paint21_linear)"/>
<path style="mix-blend-mode:color-dodge" d="M616.057 213.921L451.927 119.24C447.322 116.589 443.184 116.722 440.248 119.073C443.034 118.737 445.849 119.386 448.206 120.907L612.386 215.588C621.412 220.79 628.737 234.778 628.737 246.799V283.478C628.737 289.396 626.969 293.731 624.099 295.998C629.104 295.165 632.441 289.996 632.441 281.81V245.132C632.408 233.111 625.083 219.123 616.057 213.921Z" fill="url(#paint22_radial)"/>
<path d="M504.902 172.858V176.809L608.949 236.462V232.511L504.902 172.858Z" fill="white"/>
<path d="M547.065 229.609L504.902 205.701V209.653L547.065 233.561V229.609Z" fill="white"/>
<path d="M570.307 226.609L504.902 189.28V193.231L570.307 230.56V226.609Z" fill="white"/>
<path d="M531.514 212.437L504.902 197.482V201.433L531.514 216.388V212.437Z" fill="white"/>
<path d="M535.418 214.688V218.639L587.876 248.933V244.981L535.418 214.688Z" fill="white"/>
<path d="M550.952 231.86V235.812L581.152 253.234V249.283L550.952 231.86Z" fill="white"/>
<path d="M574.211 232.794L608.949 252.884V248.933L574.211 228.843V232.794Z" fill="white"/>
<path d="M591.763 251.183L608.949 261.086V257.135L591.763 247.232V251.183Z" fill="white"/>
<path d="M504.902 185.012L608.949 244.665V240.713L504.902 181.06V185.012Z" fill="white"/>
<path d="M585.056 255.485L608.949 269.306V265.354L585.056 251.533V255.485Z" fill="white"/>
<path d="M504.902 217.856L608.949 277.509V273.558L504.902 213.905V217.856Z" fill="white"/>
<path d="M486.114 191.264C483.472 188.942 481.218 186.212 479.44 183.178C478.323 181.31 478.356 179.293 479.44 178.659C480.956 177.755 482.16 176.412 482.894 174.808C484.079 175.142 485.547 174.708 485.547 173.141C485.564 171.531 484.968 169.975 483.879 168.789C483.595 161.704 481.176 154.435 473.017 149.733C464.858 145.032 462.455 149.516 462.172 156.252C461.187 156.035 460.503 156.986 460.503 158.653C460.782 160.515 461.724 162.214 463.156 163.438C464.012 166.165 465.171 168.787 466.61 171.257C467.694 173.141 467.728 175.208 466.61 175.792C464.507 176.749 462.113 176.851 459.936 176.075C456.515 175.041 453.963 177.109 453.963 181.327V188.613C454.005 189.385 454.229 190.137 454.618 190.807C455.006 191.476 455.548 192.044 456.198 192.464L490.085 212.02C491.32 212.721 492.321 212.154 492.321 210.737V203.451C492.167 201.105 491.537 198.816 490.47 196.721C489.403 194.626 487.921 192.769 486.114 191.264Z" fill="white"/>
<path style="mix-blend-mode:color-dodge" d="M635.144 221.757C638.264 229.326 637.296 236.878 632.992 238.646C628.687 240.413 622.68 235.711 619.644 228.159C616.607 220.606 617.508 213.037 621.796 211.27C626.084 209.503 632.124 214.204 635.144 221.757Z" fill="url(#paint23_radial)"/>
<path style="mix-blend-mode:screen" d="M588.009 496.013C588.009 515.252 579.917 565.586 569.939 565.586C559.962 565.586 551.853 515.252 551.853 496.013C551.853 479.09 559.962 475.006 569.939 475.006C579.917 475.006 588.009 479.09 588.009 496.013Z" fill="url(#paint24_linear)"/>
<path style="mix-blend-mode:screen" d="M587.075 495.779C587.075 514.552 579.416 564.419 569.973 564.419C560.529 564.419 552.854 514.552 552.854 495.779C552.854 479.257 560.513 475.272 569.973 475.272C579.433 475.272 587.075 479.257 587.075 495.779Z" fill="url(#paint25_linear)"/>
<path style="mix-blend-mode:screen" d="M586.09 495.546C586.09 513.885 578.849 563.235 569.939 563.235C561.03 563.235 553.788 513.869 553.788 495.546C553.788 479.424 561.013 475.539 569.939 475.539C578.866 475.539 586.09 479.424 586.09 495.546Z" fill="url(#paint26_linear)"/>
<path style="mix-blend-mode:screen" d="M585.123 495.313C585.123 513.169 578.315 562.002 569.939 562.002C561.564 562.002 554.756 513.102 554.756 495.313C554.756 479.591 561.547 475.806 569.939 475.806C578.332 475.806 585.123 479.591 585.123 495.313Z" fill="url(#paint27_linear)"/>
<path style="mix-blend-mode:screen" d="M584.155 495.046C584.155 512.452 577.781 560.868 569.939 560.868C562.098 560.868 555.724 512.518 555.724 495.046C555.724 479.724 562.081 476.04 569.939 476.04C577.798 476.04 584.155 479.757 584.155 495.046Z" fill="url(#paint28_linear)"/>
<path style="mix-blend-mode:screen" d="M583.187 494.845C583.187 511.784 577.247 559.717 569.939 559.717C562.631 559.717 556.692 511.784 556.692 494.845C556.692 479.924 562.615 476.339 569.939 476.339C577.264 476.339 583.187 479.924 583.187 494.845Z" fill="url(#paint29_linear)"/>
<path style="mix-blend-mode:screen" d="M582.22 494.612C582.22 511.101 576.73 558.55 569.939 558.55C563.149 558.55 557.659 511.101 557.659 494.612C557.659 480.091 563.149 476.606 569.939 476.606C576.73 476.606 582.22 480.041 582.22 494.612Z" fill="url(#paint30_linear)"/>
<path style="mix-blend-mode:screen" d="M581.252 494.379C581.252 510.401 576.246 557.383 569.939 557.383C563.633 557.383 558.61 510.401 558.61 494.379C558.61 480.258 563.616 476.856 569.939 476.856C576.263 476.856 581.252 480.258 581.252 494.379Z" fill="url(#paint31_linear)"/>
<path style="mix-blend-mode:screen" d="M580.301 494.146C580.301 509.717 575.662 556.216 569.939 556.216C564.216 556.216 559.578 509.717 559.578 494.146C559.578 480.441 564.216 477.123 569.939 477.123C575.662 477.123 580.301 480.441 580.301 494.146Z" fill="url(#paint32_linear)"/>
<path style="mix-blend-mode:screen" d="M579.333 493.912C579.333 509.034 575.129 555.033 569.94 555.033C564.751 555.033 560.546 509.034 560.546 493.912C560.546 480.575 564.751 477.39 569.94 477.39C575.129 477.39 579.333 480.608 579.333 493.912Z" fill="url(#paint33_linear)"/>
<path style="mix-blend-mode:screen" d="M578.365 493.678C578.365 508.333 574.595 553.865 570.023 553.865C565.451 553.865 561.597 508.333 561.597 493.678C561.597 480.774 565.368 477.656 570.023 477.656C574.678 477.656 578.365 480.774 578.365 493.678Z" fill="url(#paint34_linear)"/>
<path style="mix-blend-mode:screen" d="M577.398 493.378C577.398 507.583 574.061 552.631 569.939 552.631C565.818 552.631 562.481 507.617 562.481 493.378C562.481 480.874 565.818 477.857 569.939 477.857C574.061 477.857 577.398 480.941 577.398 493.378Z" fill="url(#paint35_linear)"/>
<path d="M584.489 469.787H555.557V473.855V473.972C555.557 478.624 562.031 482.308 570.023 482.308C578.015 482.308 584.489 478.54 584.489 473.972V473.855V469.787Z" fill="url(#paint36_linear)"/>
<path d="M532.499 374.208C530.229 384.444 518.483 419.489 510.591 417.739C502.699 415.988 501.131 378.209 503.917 367.872C506.337 358.953 513.428 354.368 521.32 356.118C523.272 356.519 525.121 357.314 526.754 358.454C528.388 359.595 529.77 361.057 530.817 362.751C531.864 364.446 532.554 366.336 532.843 368.306C533.132 370.276 533.015 372.284 532.499 374.208Z" fill="url(#paint37_linear)"/>
<path d="M570.023 478.275C578.012 478.275 584.489 474.506 584.489 469.856C584.489 465.206 578.012 461.436 570.023 461.436C562.034 461.436 555.557 465.206 555.557 469.856C555.557 474.506 562.034 478.275 570.023 478.275Z" fill="url(#paint38_linear)"/>
<path d="M634.393 364.254C634.393 399.816 605.545 474.29 569.939 474.29C534.334 474.29 505.469 399.782 505.469 364.254C505.469 332.927 534.334 325.391 569.939 325.391C605.545 325.391 634.393 332.927 634.393 364.254Z" fill="url(#paint39_linear)"/>
<path style="mix-blend-mode:multiply" d="M634.393 364.254C634.393 399.816 605.545 474.29 569.939 474.29C534.334 474.29 505.469 399.782 505.469 364.254C505.469 332.927 534.334 325.391 569.939 325.391C605.545 325.391 634.393 332.927 634.393 364.254Z" fill="url(#paint40_radial)"/>
<path opacity="0.07" d="M570.056 395.264C604.575 395.264 632.558 378.984 632.558 358.902C632.558 338.82 604.575 322.54 570.056 322.54C535.538 322.54 507.555 338.82 507.555 358.902C507.555 378.984 535.538 395.264 570.056 395.264Z" fill="url(#paint41_linear)"/>
<path opacity="0.15" d="M570.04 394.581C604.134 394.581 631.774 378.495 631.774 358.652C631.774 338.809 604.134 322.724 570.04 322.724C535.945 322.724 508.305 338.809 508.305 358.652C508.305 378.495 535.945 394.581 570.04 394.581Z" fill="url(#paint42_linear)"/>
<path opacity="0.22" d="M570.006 393.881C603.677 393.881 630.973 377.996 630.973 358.402C630.973 338.808 603.677 322.924 570.006 322.924C536.335 322.924 509.04 338.808 509.04 358.402C509.04 377.996 536.335 393.881 570.006 393.881Z" fill="url(#paint43_linear)"/>
<path opacity="0.29" d="M569.989 393.214C603.246 393.214 630.205 377.524 630.205 358.169C630.205 338.814 603.246 323.124 569.989 323.124C536.733 323.124 509.774 338.814 509.774 358.169C509.774 377.524 536.733 393.214 569.989 393.214Z" fill="url(#paint44_linear)"/>
<path opacity="0.36" d="M569.973 392.514C602.805 392.514 629.421 377.025 629.421 357.919C629.421 338.813 602.805 323.324 569.973 323.324C537.14 323.324 510.525 338.813 510.525 357.919C510.525 377.025 537.14 392.514 569.973 392.514Z" fill="url(#paint45_linear)"/>
<path opacity="0.44" d="M569.94 391.813C602.357 391.813 628.637 376.526 628.637 357.669C628.637 338.811 602.357 323.524 569.94 323.524C537.522 323.524 511.242 338.811 511.242 357.669C511.242 376.526 537.522 391.813 569.94 391.813Z" fill="url(#paint46_linear)"/>
<path opacity="0.51" d="M569.923 391.129C601.917 391.129 627.853 376.036 627.853 357.418C627.853 338.8 601.917 323.707 569.923 323.707C537.929 323.707 511.993 338.8 511.993 357.418C511.993 376.036 537.929 391.129 569.923 391.129Z" fill="url(#paint47_linear)"/>
<path opacity="0.58" d="M569.889 390.429C601.459 390.429 627.052 375.538 627.052 357.168C627.052 338.799 601.459 323.907 569.889 323.907C538.319 323.907 512.727 338.799 512.727 357.168C512.727 375.538 538.319 390.429 569.889 390.429Z" fill="url(#paint48_linear)"/>
<path opacity="0.65" d="M569.873 389.746C601.028 389.746 626.284 375.049 626.284 356.918C626.284 338.788 601.028 324.091 569.873 324.091C538.717 324.091 513.461 338.788 513.461 356.918C513.461 375.049 538.717 389.746 569.873 389.746Z" fill="url(#paint49_linear)"/>
<path opacity="0.73" d="M569.839 389.046C600.571 389.046 625.484 374.55 625.484 356.669C625.484 338.787 600.571 324.291 569.839 324.291C539.108 324.291 514.195 338.787 514.195 356.669C514.195 374.55 539.108 389.046 569.839 389.046Z" fill="url(#paint50_linear)"/>
<path opacity="0.8" d="M569.823 388.346C600.13 388.346 624.699 374.051 624.699 356.418C624.699 338.786 600.13 324.491 569.823 324.491C539.515 324.491 514.946 338.786 514.946 356.418C514.946 374.051 539.515 388.346 569.823 388.346Z" fill="url(#paint51_linear)"/>
<path style="mix-blend-mode:multiply" opacity="0.05" d="M577.131 380.559C606.655 380.559 630.589 366.631 630.589 349.449C630.589 332.267 606.655 318.339 577.131 318.339C547.606 318.339 523.672 332.267 523.672 349.449C523.672 366.631 547.606 380.559 577.131 380.559Z" fill="url(#paint52_linear)"/>
<path style="mix-blend-mode:multiply" opacity="0.09" d="M576.997 379.826C605.738 379.826 629.037 366.27 629.037 349.549C629.037 332.828 605.738 319.272 576.997 319.272C548.256 319.272 524.957 332.828 524.957 349.549C524.957 366.27 548.256 379.826 576.997 379.826Z" fill="url(#paint53_linear)"/>
<path style="mix-blend-mode:multiply" opacity="0.14" d="M576.88 379.109C604.838 379.109 627.502 365.92 627.502 349.65C627.502 333.379 604.838 320.19 576.88 320.19C548.923 320.19 526.258 333.379 526.258 349.65C526.258 365.92 548.923 379.109 576.88 379.109Z" fill="url(#paint54_linear)"/>
<path style="mix-blend-mode:multiply" opacity="0.18" d="M576.764 378.376C603.947 378.376 625.984 365.552 625.984 349.733C625.984 333.914 603.947 321.09 576.764 321.09C549.58 321.09 527.543 333.914 527.543 349.733C527.543 365.552 549.58 378.376 576.764 378.376Z" fill="url(#paint55_linear)"/>
<path style="mix-blend-mode:multiply" opacity="0.23" d="M576.63 377.642C603.031 377.642 624.432 365.191 624.432 349.833C624.432 334.474 603.031 322.023 576.63 322.023C550.23 322.023 528.828 334.474 528.828 349.833C528.828 365.191 550.23 377.642 576.63 377.642Z" fill="url(#paint56_linear)"/>
<path style="mix-blend-mode:multiply" opacity="0.27" d="M576.513 376.925C602.14 376.925 622.914 364.84 622.914 349.933C622.914 335.025 602.14 322.94 576.513 322.94C550.887 322.94 530.113 335.025 530.113 349.933C530.113 364.84 550.887 376.925 576.513 376.925Z" fill="url(#paint57_linear)"/>
<path style="mix-blend-mode:multiply" opacity="0.32" d="M576.397 376.191C601.24 376.191 621.379 364.472 621.379 350.016C621.379 335.56 601.24 323.841 576.397 323.841C551.553 323.841 531.414 335.56 531.414 350.016C531.414 364.472 551.553 376.191 576.397 376.191Z" fill="url(#paint58_linear)"/>
<path style="mix-blend-mode:multiply" opacity="0.36" d="M576.263 375.474C600.323 375.474 619.827 364.121 619.827 350.116C619.827 336.111 600.323 324.757 576.263 324.757C552.203 324.757 532.699 336.111 532.699 350.116C532.699 364.121 552.203 375.474 576.263 375.474Z" fill="url(#paint59_linear)"/>
<path style="mix-blend-mode:multiply" opacity="0.41" d="M576.146 374.724C599.432 374.724 618.309 363.744 618.309 350.2C618.309 336.655 599.432 325.675 576.146 325.675C552.86 325.675 533.984 336.655 533.984 350.2C533.984 363.744 552.86 374.724 576.146 374.724Z" fill="url(#paint60_linear)"/>
<path style="mix-blend-mode:multiply" opacity="0.45" d="M576.013 374.008C598.515 374.008 616.757 363.393 616.757 350.3C616.757 337.206 598.515 326.592 576.013 326.592C553.51 326.592 535.268 337.206 535.268 350.3C535.268 363.393 553.51 374.008 576.013 374.008Z" fill="url(#paint61_linear)"/>
<path style="mix-blend-mode:multiply" opacity="0.5" d="M575.896 373.29C597.625 373.29 615.239 363.042 615.239 350.4C615.239 337.757 597.625 327.509 575.896 327.509C554.167 327.509 536.553 337.757 536.553 350.4C536.553 363.042 554.167 373.29 575.896 373.29Z" fill="url(#paint62_linear)"/>
<path d="M644.81 311.591C651.946 270.437 624.344 231.296 583.16 224.165C541.975 217.034 502.803 244.615 495.667 285.769C488.531 326.922 516.133 366.064 557.318 373.194C598.502 380.325 637.674 352.744 644.81 311.591Z" fill="url(#paint63_radial)"/>
<path d="M500.714 305.351C516.567 324.527 538.848 337.3 563.416 341.297C564.97 341.55 566.562 341.463 568.079 341.041C569.597 340.619 571.005 339.873 572.205 338.853C573.405 337.833 574.368 336.564 575.029 335.135C575.689 333.706 576.031 332.151 576.029 330.576V310.853C576.043 306.552 574.67 302.361 572.112 298.901C569.554 295.442 565.949 292.898 561.831 291.647C544.06 286.269 527.923 276.524 514.896 263.304C514.181 262.572 513.303 262.019 512.334 261.689C511.365 261.359 510.332 261.262 509.319 261.405C508.305 261.548 507.339 261.927 506.5 262.512C505.66 263.096 504.97 263.871 504.485 264.771C500.178 272.888 497.428 281.737 496.376 290.863C496.085 293.446 496.319 296.06 497.065 298.55C497.81 301.039 499.051 303.353 500.714 305.351Z" fill="url(#paint64_linear)"/>
<path d="M518.699 299.76C520.886 298.482 520.862 294.372 518.643 290.58C516.425 286.789 512.853 284.751 510.666 286.029C508.478 287.307 508.503 291.416 510.721 295.208C512.939 299 516.511 301.038 518.699 299.76Z" fill="#2AF6FF"/>
<path d="M552.821 314.988C552.821 318.572 550.285 319.99 547.165 318.206C545.524 317.141 544.158 315.704 543.178 314.012C542.199 312.32 541.632 310.421 541.525 308.469C541.525 304.901 544.045 303.467 547.165 305.251C548.806 306.316 550.174 307.753 551.157 309.445C552.139 311.136 552.709 313.035 552.821 314.988Z" fill="#2AF6FF"/>
<path d="M614.905 422.557C624.636 422.557 632.525 414.674 632.525 404.951C632.525 395.227 624.636 387.345 614.905 387.345C605.175 387.345 597.286 395.227 597.286 404.951C597.286 414.674 605.175 422.557 614.905 422.557Z" fill="url(#paint65_radial)"/>
<path d="M630.656 412.754C628.42 425.991 609.816 455.034 601.924 453.367C594.032 451.7 601.073 415.788 603.359 405.551C605.361 396.548 612.853 392.064 620.745 393.881C628.637 395.698 632.124 403.651 630.656 412.754Z" fill="url(#paint66_linear)"/>
<path style="mix-blend-mode:multiply" d="M630.656 412.754C628.42 425.991 609.816 455.034 601.924 453.367C594.032 451.7 601.073 415.788 603.359 405.551C605.361 396.548 612.853 392.064 620.745 393.881C628.637 395.698 632.124 403.651 630.656 412.754Z" fill="url(#paint67_radial)"/>
<path style="mix-blend-mode:color-dodge" d="M617.575 409.486C616.807 419.939 604.627 449.382 602.108 449.182C599.589 448.982 603.777 422.507 605.195 411.203C606.363 402.05 609.166 397.399 611.568 396.615C618.443 394.364 618.259 400.283 617.575 409.486Z" fill="url(#paint68_radial)"/>
<path style="mix-blend-mode:color-dodge" d="M629.021 414.121C625.784 429.609 609.833 450.183 607.33 449.699C604.828 449.216 619.01 428.475 621.779 417.472C624.015 408.519 621.88 399.416 624.366 398.916C631.457 397.482 630.906 405.018 629.021 414.121Z" fill="url(#paint69_radial)"/>
<path d="M592.648 233.711H547.348V237.045C547.348 237.045 547.348 237.162 547.348 237.229C547.348 244.498 557.493 250.4 570.006 250.4C582.52 250.4 592.648 244.498 592.648 237.229C592.648 237.229 592.648 237.096 592.648 237.045V233.711Z" fill="url(#paint70_linear)"/>
<path d="M569.99 246.982C582.494 246.982 592.631 241.085 592.631 233.811C592.631 226.537 582.494 220.64 569.99 220.64C557.485 220.64 547.348 226.537 547.348 233.811C547.348 241.085 557.485 246.982 569.99 246.982Z" fill="url(#paint71_linear)"/>
<path d="M573.393 202.584H566.619V232.377C566.619 233.461 568.137 234.345 569.956 234.345C571.775 234.345 573.293 233.461 573.293 232.377L573.393 202.584Z" fill="url(#paint72_linear)"/>
<path d="M580.067 203.451C580.067 206.104 579.013 208.648 577.135 210.524C575.258 212.4 572.711 213.454 570.056 213.454C567.401 213.454 564.855 212.4 562.977 210.524C561.1 208.648 560.045 206.104 560.045 203.451C560.045 200.798 561.1 198.253 562.977 196.377C564.855 194.501 567.401 193.448 570.056 193.448C572.711 193.448 575.258 194.501 577.135 196.377C579.013 198.253 580.067 200.798 580.067 203.451Z" fill="url(#paint73_radial)"/>
<path style="mix-blend-mode:color-dodge" d="M601.978 284.882C606.258 258.767 588.54 234.129 562.405 229.853C536.27 225.576 511.613 243.28 507.334 269.396C503.054 295.511 520.771 320.148 546.906 324.425C573.042 328.702 597.698 310.998 601.978 284.882Z" fill="url(#paint74_radial)"/>
<path style="mix-blend-mode:color-dodge" d="M535.097 297.266C537.803 285.88 530.759 274.457 519.364 271.753C507.969 269.049 496.538 276.087 493.831 287.473C491.125 298.86 498.169 310.282 509.564 312.987C520.959 315.691 532.39 308.653 535.097 297.266Z" fill="url(#paint75_radial)"/>
<path style="mix-blend-mode:color-dodge" d="M547.482 333.077C559.194 333.077 568.688 323.59 568.688 311.887C568.688 300.184 559.194 290.696 547.482 290.696C535.77 290.696 526.275 300.184 526.275 311.887C526.275 323.59 535.77 333.077 547.482 333.077Z" fill="url(#paint76_radial)"/>
<path style="mix-blend-mode:color-dodge" d="M536.403 391.547C544.996 426.075 562.815 465.838 558.577 467.755C551.136 471.09 521.87 432.093 513.211 397.565C505.653 367.189 509.223 331.443 517.098 329.493C524.974 327.542 528.828 361.17 536.403 391.547Z" fill="url(#paint77_radial)"/>
<path d="M517.766 342.413L512.327 333.044C511.242 331.176 512.327 329.709 513.811 331.193L521.253 338.512C522.931 340.314 525.11 341.574 527.51 342.13L534.951 343.397C536.386 343.63 537.521 346.331 536.436 346.948L530.997 349.999C527.343 352.133 521.42 348.715 517.766 342.413Z" fill="url(#paint78_linear)"/>
<path style="mix-blend-mode:screen" d="M487.95 233.061L300.095 124.325L276.252 138.446C272.653 140.584 269.672 143.62 267.601 147.256C265.531 150.892 264.441 155.003 264.439 159.186V192.731C264.439 199.259 266.156 205.673 269.418 211.329C272.68 216.985 277.373 221.685 283.026 224.958L446.738 319.539C450.576 321.757 487.967 365.504 491.787 363.27L520.636 346.365L487.95 233.061Z" fill="url(#paint79_linear)"/>
<path d="M496.976 360.336L469.263 297.565V262.82C469.263 252.467 461.938 239.846 452.895 234.644L288.732 139.746C284.211 137.129 280.123 136.879 277.17 138.563C276.903 138.713 268.994 143.148 268.744 143.331C266.241 145.182 272.381 144.348 272.381 149.049V191.847C272.381 202.2 279.706 214.821 288.732 220.04L447.823 312.003L489.134 364.838L496.976 360.336Z" fill="url(#paint80_linear)"/>
<path d="M489.084 364.837L461.371 302.05V267.322C461.371 256.968 454.046 244.348 445.02 239.146L280.84 144.231C271.814 139.029 264.489 143.197 264.489 153.551V196.348C264.489 206.702 271.814 219.323 280.84 224.541L439.931 316.505L489.084 364.837Z" fill="url(#paint81_linear)"/>
<path style="mix-blend-mode:color-dodge" d="M280.073 145.348L444.252 240.246C453.279 245.465 460.603 258.086 460.603 268.439V303.167L484.179 356.668L491.587 363.954L463.874 301.166V266.438C463.874 256.085 456.549 243.464 447.522 238.262L283.41 143.398C278.004 140.28 273.232 140.547 270.262 143.398C271.944 143.045 273.681 143.036 275.367 143.371C277.053 143.706 278.654 144.379 280.073 145.348Z" fill="url(#paint82_radial)"/>
<path d="M302.28 181.944V179.276L299.644 177.759V170.407C300.829 170.507 301.663 169.64 301.663 168.073C301.597 166.92 301.26 165.799 300.681 164.799C300.101 163.8 299.294 162.951 298.326 162.321C296.491 161.271 294.989 162.121 294.989 164.222C295.08 165.966 295.79 167.621 296.991 168.89V176.225L294.355 174.708V177.376C285.495 174.358 278.838 179.51 278.838 190.28C278.838 202.618 287.564 217.639 298.309 223.841C309.054 230.043 317.781 225.075 317.781 212.754C317.797 201.984 311.14 189.146 302.28 181.944ZM309.889 215.538C301.615 212.373 293.89 207.929 286.997 202.367C285.94 201.51 285.073 200.441 284.453 199.229C283.832 198.018 283.471 196.69 283.393 195.332V190.33C283.393 188.213 285.061 187.579 286.88 189.013C293.775 194.576 301.499 199.026 309.772 202.201C310.777 202.702 311.631 203.462 312.244 204.403C312.857 205.343 313.207 206.431 313.259 207.552V212.888C313.259 215.105 311.774 216.239 309.889 215.538ZM291.285 195.799C289.967 195.032 288.916 195.649 288.916 197.132C288.961 197.951 289.2 198.748 289.612 199.458C290.023 200.167 290.597 200.77 291.285 201.217C292.586 201.967 293.638 201.367 293.638 199.867C293.594 199.051 293.358 198.258 292.949 197.551C292.54 196.844 291.97 196.244 291.285 195.799ZM305.384 203.935C304.082 203.184 303.014 203.785 303.014 205.268C303.063 206.087 303.302 206.882 303.714 207.592C304.125 208.301 304.697 208.904 305.384 209.353C306.685 210.103 307.736 209.503 307.736 208.003C307.692 207.187 307.456 206.394 307.048 205.687C306.639 204.98 306.069 204.38 305.384 203.935Z" fill="white"/>
<path d="M330.711 191.447V195.398L439.18 257.452V253.501L330.711 191.447Z" fill="white"/>
<path d="M376.078 249.933L330.711 224.291V228.242L376.078 253.884V249.933Z" fill="white"/>
<path d="M399.336 246.932L330.711 207.869V211.82L399.336 250.883V246.932Z" fill="white"/>
<path d="M360.544 232.761L330.711 216.088V220.04L360.544 236.712V232.761Z" fill="white"/>
<path d="M364.432 235.011V238.962L418.107 269.923V265.971L364.432 235.011Z" fill="white"/>
<path d="M379.965 252.184V256.135L410.182 273.558V269.606L379.965 252.184Z" fill="white"/>
<path d="M403.224 253.117L439.18 273.874V269.923L403.224 249.182V253.117Z" fill="white"/>
<path d="M421.995 272.174L439.18 282.077V278.126L421.995 268.223V272.174Z" fill="white"/>
<path d="M330.711 203.618L439.18 265.655V261.704L330.711 199.667V203.618Z" fill="white"/>
<path d="M414.069 275.808L439.18 290.296V286.345L414.069 271.857V275.808Z" fill="white"/>
<path d="M330.711 236.462L439.18 298.499V294.547L330.711 232.51V236.462Z" fill="white"/>
<defs>
<linearGradient id="paint0_linear" x1="534.031" y1="126.522" x2="639.73" y2="399.372" gradientUnits="userSpaceOnUse">
<stop offset="0.06" stop-color="#200041"/>
<stop offset="0.26" stop-color="#210243"/>
<stop offset="0.36" stop-color="#25084B"/>
<stop offset="0.43" stop-color="#2C1358"/>
<stop offset="0.47" stop-color="#311B61"/>
<stop offset="0.48" stop-color="#351F65"/>
<stop offset="0.5" stop-color="#422C73"/>
<stop offset="0.51" stop-color="#584188"/>
<stop offset="0.52" stop-color="#765FA7"/>
<stop offset="0.53" stop-color="#8770B8"/>
<stop offset="0.54" stop-color="#7E67AE"/>
<stop offset="0.56" stop-color="#5C468D"/>
<stop offset="0.59" stop-color="#442E75"/>
<stop offset="0.61" stop-color="#362066"/>
<stop offset="0.63" stop-color="#311B61"/>
<stop offset="0.67" stop-color="#2A1155"/>
<stop offset="0.75" stop-color="#230446"/>
<stop offset="0.81" stop-color="#200041"/>
<stop offset="1" stop-color="#200041"/>
</linearGradient>
<radialGradient id="paint1_radial" cx="0" cy="0" r="1" gradientUnits="userSpaceOnUse" gradientTransform="translate(788.344 245.53) rotate(1.05038) scale(362.937 304.928)">
<stop stop-color="#711F56"/>
<stop offset="0.16" stop-color="#6C1E52"/>
<stop offset="0.36" stop-color="#5C1946"/>
<stop offset="0.58" stop-color="#431233"/>
<stop offset="0.82" stop-color="#200918"/>
<stop offset="1"/>
</radialGradient>
<radialGradient id="paint2_radial" cx="0" cy="0" r="1" gradientUnits="userSpaceOnUse" gradientTransform="translate(207499 -156675) rotate(1.05038) scale(39514 51306.6)">
<stop stop-color="#AF8AFC"/>
<stop offset="1" stop-color="#10054D"/>
</radialGradient>
<linearGradient id="paint3_linear" x1="191424" y1="-109277" x2="106316" y2="-164819" gradientUnits="userSpaceOnUse">
<stop offset="0.19" stop-color="#3D065F"/>
<stop offset="0.93" stop-color="#3D065F"/>
</linearGradient>
<linearGradient id="paint4_linear" x1="166737" y1="-53712.2" x2="109970" y2="-172965" gradientUnits="userSpaceOnUse">
<stop stop-color="#311B61"/>
<stop offset="0.2" stop-color="#290F52"/>
<stop offset="0.49" stop-color="#200041"/>
<stop offset="1" stop-color="#0F001F"/>
</linearGradient>
<linearGradient id="paint5_linear" x1="147021" y1="-113100" x2="175311" y2="-101589" gradientUnits="userSpaceOnUse">
<stop stop-color="#311B61"/>
<stop offset="0.2" stop-color="#290F52"/>
<stop offset="0.49" stop-color="#200041"/>
<stop offset="1" stop-color="#0F001F"/>
</linearGradient>
<linearGradient id="paint6_linear" x1="539.977" y1="169.994" x2="697.066" y2="611.495" gradientUnits="userSpaceOnUse">
<stop offset="0.01" stop-color="#9F19AB"/>
<stop offset="0.43" stop-color="#5F27BD"/>
<stop offset="0.9" stop-color="#3D065F"/>
</linearGradient>
<linearGradient id="paint7_linear" x1="670.363" y1="341.497" x2="576.936" y2="137.503" gradientUnits="userSpaceOnUse">
<stop offset="0.04" stop-color="#9F19AB"/>
<stop offset="0.24" stop-color="#AE25B1"/>
<stop offset="0.65" stop-color="#D744BF"/>
<stop offset="1" stop-color="#FF63CE"/>
</linearGradient>
<linearGradient id="paint8_linear" x1="658.484" y1="456.649" x2="572.77" y2="269.474" gradientUnits="userSpaceOnUse">
<stop offset="0.04" stop-color="#138BBD"/>
<stop offset="0.23" stop-color="#169AC7"/>
<stop offset="0.59" stop-color="#1FC3DF"/>
<stop offset="1" stop-color="#2AF6FF"/>
</linearGradient>
<linearGradient id="paint9_linear" x1="589.928" y1="551.059" x2="493.847" y2="341.24" gradientUnits="userSpaceOnUse">
<stop offset="0.04" stop-color="#FFA98C"/>
<stop offset="0.32" stop-color="#FFB892"/>
<stop offset="0.86" stop-color="#FEE1A3"/>
<stop offset="1" stop-color="#FEECA8"/>
</linearGradient>
<linearGradient id="paint10_linear" x1="-374008" y1="133920" x2="-373894" y2="134219" gradientUnits="userSpaceOnUse">
<stop stop-color="#311B61"/>
<stop offset="0.2" stop-color="#290F52"/>
<stop offset="0.49" stop-color="#200041"/>
<stop offset="1" stop-color="#0F001F"/>
</linearGradient>
<linearGradient id="paint11_linear" x1="723.065" y1="306.986" x2="703.668" y2="298.085" gradientUnits="userSpaceOnUse">
<stop stop-color="#3D065F"/>
<stop offset="1" stop-color="#5F27BD"/>
</linearGradient>
<radialGradient id="paint12_radial" cx="0" cy="0" r="1" gradientUnits="userSpaceOnUse" gradientTransform="translate(8631.53 -9768.39) scale(139.42 237.428)">
<stop stop-color="#711F56"/>
<stop offset="0.16" stop-color="#6C1E52"/>
<stop offset="0.36" stop-color="#5C1946"/>
<stop offset="0.58" stop-color="#431233"/>
<stop offset="0.82" stop-color="#200918"/>
<stop offset="1"/>
</radialGradient>
<linearGradient id="paint13_linear" x1="14744.6" y1="-2725.81" x2="12661.8" y2="-4784.54" gradientUnits="userSpaceOnUse">
<stop offset="0.04" stop-color="#138BBD"/>
<stop offset="0.23" stop-color="#169AC7"/>
<stop offset="0.59" stop-color="#1FC3DF"/>
<stop offset="1" stop-color="#2AF6FF"/>
</linearGradient>
<linearGradient id="paint14_linear" x1="374.376" y1="401.834" x2="430.071" y2="336.803" gradientUnits="userSpaceOnUse">
<stop stop-color="#FDD65B"/>
<stop offset="0.01" stop-color="#F7D159"/>
<stop offset="0.13" stop-color="#BEA144"/>
<stop offset="0.25" stop-color="#8B7632"/>
<stop offset="0.37" stop-color="#605223"/>
<stop offset="0.49" stop-color="#3E3416"/>
<stop offset="0.62" stop-color="#231D0C"/>
<stop offset="0.74" stop-color="#0F0D05"/>
<stop offset="0.87" stop-color="#040301"/>
<stop offset="1"/>
</linearGradient>
<linearGradient id="paint15_linear" x1="309.738" y1="276.509" x2="468.45" y2="471.158" gradientUnits="userSpaceOnUse">
<stop offset="0.34" stop-color="#FBCD9C"/>
<stop offset="0.81" stop-color="#FEECA8"/>
<stop offset="0.91" stop-color="#FFA98C"/>
</linearGradient>
<linearGradient id="paint16_linear" x1="66026.4" y1="3699.11" x2="120762" y2="-21358.2" gradientUnits="userSpaceOnUse">
<stop offset="0.04" stop-color="#FFA98C"/>
<stop offset="0.32" stop-color="#FFB892"/>
<stop offset="0.86" stop-color="#FEE1A3"/>
<stop offset="1" stop-color="#FEECA8"/>
</linearGradient>
<radialGradient id="paint17_radial" cx="0" cy="0" r="1" gradientUnits="userSpaceOnUse" gradientTransform="translate(506.236 372.19) scale(94.7535 94.6813)">
<stop stop-color="white"/>
<stop offset="1"/>
</radialGradient>
<radialGradient id="paint18_radial" cx="0" cy="0" r="1" gradientUnits="userSpaceOnUse" gradientTransform="translate(483.74 399.733) rotate(-21.7863) scale(8.40827 14.696)">
<stop stop-color="#C211A1"/>
<stop offset="0.01" stop-color="#BD119D"/>
<stop offset="0.15" stop-color="#8B0C73"/>
<stop offset="0.29" stop-color="#600850"/>
<stop offset="0.42" stop-color="#3E0533"/>
<stop offset="0.56" stop-color="#23031D"/>
<stop offset="0.7" stop-color="#0F010D"/>
<stop offset="0.85" stop-color="#040003"/>
<stop offset="1"/>
</radialGradient>
<linearGradient id="paint19_linear" x1="112360" y1="-62418.7" x2="118609" y2="-70694.4" gradientUnits="userSpaceOnUse">
<stop stop-color="#C211A1"/>
<stop offset="0.01" stop-color="#BD119D"/>
<stop offset="0.15" stop-color="#8B0C73"/>
<stop offset="0.29" stop-color="#600850"/>
<stop offset="0.42" stop-color="#3E0533"/>
<stop offset="0.56" stop-color="#23031D"/>
<stop offset="0.7" stop-color="#0F010D"/>
<stop offset="0.85" stop-color="#040003"/>
<stop offset="1"/>
</linearGradient>
<linearGradient id="paint20_linear" x1="458.935" y1="105.002" x2="616.796" y2="298.617" gradientUnits="userSpaceOnUse">
<stop offset="0.17" stop-color="#DC48C1"/>
<stop offset="0.43" stop-color="#DF4AC2"/>
<stop offset="0.6" stop-color="#E851C5"/>
<stop offset="0.75" stop-color="#F75DCB"/>
<stop offset="0.81" stop-color="#FF63CE"/>
<stop offset="0.91" stop-color="#9F19AB"/>
</linearGradient>
<linearGradient id="paint21_linear" x1="84689.2" y1="-13353.8" x2="138721" y2="-38069.1" gradientUnits="userSpaceOnUse">
<stop offset="0.04" stop-color="#9F19AB"/>
<stop offset="0.24" stop-color="#AE25B1"/>
<stop offset="0.65" stop-color="#D744BF"/>
<stop offset="1" stop-color="#FF63CE"/>
</linearGradient>
<radialGradient id="paint22_radial" cx="0" cy="0" r="1" gradientUnits="userSpaceOnUse" gradientTransform="translate(111184 -59372.4) scale(10874.3 10111.8)">
<stop stop-color="white"/>
<stop offset="1"/>
</radialGradient>
<radialGradient id="paint23_radial" cx="0" cy="0" r="1" gradientUnits="userSpaceOnUse" gradientTransform="translate(-29999.2 -58514.1) scale(255.631 375.958)">
<stop stop-color="#C211A1"/>
<stop offset="0.01" stop-color="#BD119D"/>
<stop offset="0.15" stop-color="#8B0C73"/>
<stop offset="0.29" stop-color="#600850"/>
<stop offset="0.42" stop-color="#3E0533"/>
<stop offset="0.56" stop-color="#23031D"/>
<stop offset="0.7" stop-color="#0F010D"/>
<stop offset="0.85" stop-color="#040003"/>
<stop offset="1"/>
</radialGradient>
<linearGradient id="paint24_linear" x1="569.939" y1="486.776" x2="569.939" y2="549.414" gradientUnits="userSpaceOnUse">
<stop stop-color="#113A39"/>
<stop offset="0.22" stop-color="#0A2222"/>
<stop offset="0.47" stop-color="#040F0F"/>
<stop offset="0.73" stop-color="#010404"/>
<stop offset="1"/>
</linearGradient>
<linearGradient id="paint25_linear" x1="569.939" y1="486.86" x2="569.939" y2="548.497" gradientUnits="userSpaceOnUse">
<stop stop-color="#164A48"/>
<stop offset="0.06" stop-color="#134140"/>
<stop offset="0.3" stop-color="#0B2524"/>
<stop offset="0.54" stop-color="#051010"/>
<stop offset="0.77" stop-color="#010404"/>
<stop offset="1"/>
</linearGradient>
<linearGradient id="paint26_linear" x1="569.939" y1="486.943" x2="569.939" y2="547.58" gradientUnits="userSpaceOnUse">
<stop stop-color="#1A5A58"/>
<stop offset="0.13" stop-color="#144645"/>
<stop offset="0.36" stop-color="#0B2827"/>
<stop offset="0.58" stop-color="#051211"/>
<stop offset="0.8" stop-color="#010404"/>
<stop offset="1"/>
</linearGradient>
<linearGradient id="paint27_linear" x1="569.939" y1="487.01" x2="569.939" y2="546.663" gradientUnits="userSpaceOnUse">
<stop stop-color="#1F6967"/>
<stop offset="0.17" stop-color="#164C4A"/>
<stop offset="0.4" stop-color="#0D2B2A"/>
<stop offset="0.62" stop-color="#061313"/>
<stop offset="0.83" stop-color="#010505"/>
<stop offset="1"/>
</linearGradient>
<linearGradient id="paint28_linear" x1="569.939" y1="487.093" x2="569.939" y2="545.746" gradientUnits="userSpaceOnUse">
<stop stop-color="#237976"/>
<stop offset="0.21" stop-color="#185250"/>
<stop offset="0.44" stop-color="#0E2F2E"/>
<stop offset="0.65" stop-color="#061514"/>
<stop offset="0.85" stop-color="#020505"/>
<stop offset="1"/>
</linearGradient>
<linearGradient id="paint29_linear" x1="569.939" y1="487.176" x2="569.939" y2="544.829" gradientUnits="userSpaceOnUse">
<stop stop-color="#288985"/>
<stop offset="0.23" stop-color="#1A5A58"/>
<stop offset="0.46" stop-color="#0F3332"/>
<stop offset="0.68" stop-color="#071717"/>
<stop offset="0.86" stop-color="#020606"/>
<stop offset="1"/>
</linearGradient>
<linearGradient id="paint30_linear" x1="569.94" y1="487.26" x2="569.94" y2="543.928" gradientUnits="userSpaceOnUse">
<stop stop-color="#2C9995"/>
<stop offset="0.25" stop-color="#1D6462"/>
<stop offset="0.48" stop-color="#103938"/>
<stop offset="0.7" stop-color="#071A19"/>
<stop offset="0.88" stop-color="#020707"/>
<stop offset="1"/>
</linearGradient>
<linearGradient id="paint31_linear" x1="569.94" y1="487.327" x2="569.94" y2="543.012" gradientUnits="userSpaceOnUse">
<stop stop-color="#31A9A4"/>
<stop offset="0.25" stop-color="#21716D"/>
<stop offset="0.49" stop-color="#13403E"/>
<stop offset="0.71" stop-color="#081D1C"/>
<stop offset="0.89" stop-color="#020808"/>
<stop offset="1"/>
</linearGradient>
<linearGradient id="paint32_linear" x1="569.939" y1="487.41" x2="569.939" y2="542.095" gradientUnits="userSpaceOnUse">
<stop stop-color="#35B9B3"/>
<stop offset="0.24" stop-color="#25807C"/>
<stop offset="0.49" stop-color="#154947"/>
<stop offset="0.72" stop-color="#0A2120"/>
<stop offset="0.89" stop-color="#030909"/>
<stop offset="1"/>
</linearGradient>
<linearGradient id="paint33_linear" x1="569.94" y1="487.493" x2="569.94" y2="541.178" gradientUnits="userSpaceOnUse">
<stop stop-color="#3AC8C2"/>
<stop offset="0.2" stop-color="#2B9591"/>
<stop offset="0.48" stop-color="#195653"/>
<stop offset="0.72" stop-color="#0B2726"/>
<stop offset="0.9" stop-color="#030B0A"/>
<stop offset="1"/>
</linearGradient>
<linearGradient id="paint34_linear" x1="569.939" y1="487.56" x2="569.939" y2="540.26" gradientUnits="userSpaceOnUse">
<stop stop-color="#3ED8D2"/>
<stop offset="0.14" stop-color="#33B3AE"/>
<stop offset="0.45" stop-color="#1E6764"/>
<stop offset="0.71" stop-color="#0E2F2E"/>
<stop offset="0.9" stop-color="#040D0D"/>
<stop offset="1"/>
</linearGradient>
<linearGradient id="paint35_linear" x1="569.939" y1="487.643" x2="569.939" y2="539.344" gradientUnits="userSpaceOnUse">
<stop stop-color="#43E8E1"/>
<stop offset="0.02" stop-color="#41E1DB"/>
<stop offset="0.39" stop-color="#26827E"/>
<stop offset="0.68" stop-color="#113C3A"/>
<stop offset="0.89" stop-color="#051110"/>
<stop offset="1"/>
</linearGradient>
<linearGradient id="paint36_linear" x1="555.691" y1="476.089" x2="584.172" y2="476.089" gradientUnits="userSpaceOnUse">
<stop offset="0.02" stop-color="#45108A"/>
<stop offset="0.29" stop-color="#3D065F"/>
<stop offset="1" stop-color="#10054D"/>
</linearGradient>
<linearGradient id="paint37_linear" x1="487.299" y1="383.377" x2="539.322" y2="389.772" gradientUnits="userSpaceOnUse">
<stop offset="0.01" stop-color="#C1A1D5"/>
<stop offset="0.05" stop-color="#C8ABDA"/>
<stop offset="0.11" stop-color="#DAC6E6"/>
<stop offset="0.2" stop-color="#F7F2F9"/>
<stop offset="0.22" stop-color="white"/>
<stop offset="0.25" stop-color="#F9F5FB"/>
<stop offset="0.3" stop-color="#E9DBF2"/>
<stop offset="0.36" stop-color="#D1B4E3"/>
<stop offset="0.43" stop-color="#B395D6"/>
<stop offset="0.49" stop-color="#9C7DCB"/>
<stop offset="0.56" stop-color="#8E6EC5"/>
<stop offset="0.61" stop-color="#8969C3"/>
<stop offset="0.76" stop-color="#9471C6"/>
<stop offset="1" stop-color="#B086CC"/>
</linearGradient>
<linearGradient id="paint38_linear" x1="10241" y1="5140.12" x2="10507.9" y2="5404.99" gradientUnits="userSpaceOnUse">
<stop offset="0.02" stop-color="#45108A"/>
<stop offset="0.29" stop-color="#3D065F"/>
<stop offset="1" stop-color="#10054D"/>
</linearGradient>
<linearGradient id="paint39_linear" x1="503.25" y1="409.019" x2="636.424" y2="388.849" gradientUnits="userSpaceOnUse">
<stop offset="0.01" stop-color="#C1A1D5"/>
<stop offset="0.04" stop-color="#C8ABDA"/>
<stop offset="0.1" stop-color="#DAC6E6"/>
<stop offset="0.18" stop-color="#F7F2F9"/>
<stop offset="0.2" stop-color="white"/>
<stop offset="0.23" stop-color="#F9F5FB"/>
<stop offset="0.29" stop-color="#E9DBF2"/>
<stop offset="0.36" stop-color="#D1B4E3"/>
<stop offset="0.43" stop-color="#B395D6"/>
<stop offset="0.49" stop-color="#9C7DCB"/>
<stop offset="0.56" stop-color="#8E6EC5"/>
<stop offset="0.61" stop-color="#8969C3"/>
<stop offset="0.76" stop-color="#9471C6"/>
<stop offset="1" stop-color="#B086CC"/>
</linearGradient>
<radialGradient id="paint40_radial" cx="0" cy="0" r="1" gradientUnits="userSpaceOnUse" gradientTransform="translate(563.749 395.047) scale(84.6258 84.5613)">
<stop offset="0.38" stop-color="white"/>
<stop offset="0.47" stop-color="#F4F2F9"/>
<stop offset="0.63" stop-color="#D8D0E8"/>
<stop offset="0.85" stop-color="#AA99CC"/>
<stop offset="1" stop-color="#8770B8"/>
</radialGradient>
<linearGradient id="paint41_linear" x1="39511.1" y1="14733.5" x2="44489.9" y2="19674.3" gradientUnits="userSpaceOnUse">
<stop stop-color="white"/>
<stop offset="0.31" stop-color="#E9DDF1"/>
<stop offset="0.98" stop-color="#B188CD"/>
<stop offset="1" stop-color="#B086CC"/>
</linearGradient>
<linearGradient id="paint42_linear" x1="39074.9" y1="14566.2" x2="43934.8" y2="19386.7" gradientUnits="userSpaceOnUse">
<stop stop-color="white"/>
<stop offset="0.31" stop-color="#E9DDF1"/>
<stop offset="0.98" stop-color="#B188CD"/>
<stop offset="1" stop-color="#B086CC"/>
</linearGradient>
<linearGradient id="paint43_linear" x1="38638.8" y1="14392.2" x2="43379.2" y2="19094" gradientUnits="userSpaceOnUse">
<stop stop-color="white"/>
<stop offset="0.31" stop-color="#E9DDF1"/>
<stop offset="0.98" stop-color="#B188CD"/>
<stop offset="1" stop-color="#B086CC"/>
</linearGradient>
<linearGradient id="paint44_linear" x1="38212.1" y1="14224" x2="42834" y2="18810.8" gradientUnits="userSpaceOnUse">
<stop stop-color="white"/>
<stop offset="0.31" stop-color="#E9DDF1"/>
<stop offset="0.98" stop-color="#B188CD"/>
<stop offset="1" stop-color="#B086CC"/>
</linearGradient>
<linearGradient id="paint45_linear" x1="37772.7" y1="14049.8" x2="42279.2" y2="18521.1" gradientUnits="userSpaceOnUse">
<stop stop-color="white"/>
<stop offset="0.31" stop-color="#E9DDF1"/>
<stop offset="0.98" stop-color="#B188CD"/>
<stop offset="1" stop-color="#B086CC"/>
</linearGradient>
<linearGradient id="paint46_linear" x1="37343.9" y1="13875.5" x2="41734.1" y2="18233.3" gradientUnits="userSpaceOnUse">
<stop stop-color="white"/>
<stop offset="0.31" stop-color="#E9DDF1"/>
<stop offset="0.98" stop-color="#B188CD"/>
<stop offset="1" stop-color="#B086CC"/>
</linearGradient>
<linearGradient id="paint47_linear" x1="36903.6" y1="13707.7" x2="41182.3" y2="17952.6" gradientUnits="userSpaceOnUse">
<stop stop-color="white"/>
<stop offset="0.31" stop-color="#E9DDF1"/>
<stop offset="0.98" stop-color="#B188CD"/>
<stop offset="1" stop-color="#B086CC"/>
</linearGradient>
<linearGradient id="paint48_linear" x1="36461.1" y1="13533.2" x2="40627.7" y2="17666.7" gradientUnits="userSpaceOnUse">
<stop stop-color="white"/>
<stop offset="0.31" stop-color="#E9DDF1"/>
<stop offset="0.98" stop-color="#B188CD"/>
<stop offset="1" stop-color="#B086CC"/>
</linearGradient>
<linearGradient id="paint49_linear" x1="36029.1" y1="13365.2" x2="40085.9" y2="17389.5" gradientUnits="userSpaceOnUse">
<stop stop-color="white"/>
<stop offset="0.31" stop-color="#E9DDF1"/>
<stop offset="0.98" stop-color="#B188CD"/>
<stop offset="1" stop-color="#B086CC"/>
</linearGradient>
<linearGradient id="paint50_linear" x1="35585.6" y1="13190.4" x2="39532.6" y2="17107" gradientUnits="userSpaceOnUse">
<stop stop-color="white"/>
<stop offset="0.31" stop-color="#E9DDF1"/>
<stop offset="0.98" stop-color="#B188CD"/>
<stop offset="1" stop-color="#B086CC"/>
</linearGradient>
<linearGradient id="paint51_linear" x1="35141" y1="13015.6" x2="38979.2" y2="16824.8" gradientUnits="userSpaceOnUse">
<stop stop-color="white"/>
<stop offset="0.31" stop-color="#E9DDF1"/>
<stop offset="0.98" stop-color="#B188CD"/>
<stop offset="1" stop-color="#B086CC"/>
</linearGradient>
<linearGradient id="paint52_linear" x1="34794.8" y1="12449.5" x2="38438.5" y2="16063.4" gradientUnits="userSpaceOnUse">
<stop offset="0.19" stop-color="#3D065F"/>
<stop offset="0.93" stop-color="#3D065F"/>
</linearGradient>
<linearGradient id="paint53_linear" x1="33949.3" y1="12152" x2="37401.5" y2="15577.3" gradientUnits="userSpaceOnUse">
<stop offset="0.19" stop-color="#3D065F"/>
<stop offset="0.93" stop-color="#3D065F"/>
</linearGradient>
<linearGradient id="paint54_linear" x1="33099.5" y1="11859.6" x2="36368.1" y2="15101.6" gradientUnits="userSpaceOnUse">
<stop offset="0.19" stop-color="#3D065F"/>
<stop offset="0.93" stop-color="#3D065F"/>
</linearGradient>
<linearGradient id="paint55_linear" x1="32258" y1="11565.7" x2="35346.1" y2="14629.9" gradientUnits="userSpaceOnUse">
<stop offset="0.19" stop-color="#3D065F"/>
<stop offset="0.93" stop-color="#3D065F"/>
</linearGradient>
<linearGradient id="paint56_linear" x1="31402.4" y1="11264.4" x2="34314.9" y2="14154.6" gradientUnits="userSpaceOnUse">
<stop offset="0.19" stop-color="#3D065F"/>
<stop offset="0.93" stop-color="#3D065F"/>
</linearGradient>
<linearGradient id="paint57_linear" x1="30553.2" y1="10967.6" x2="33297.4" y2="13690.7" gradientUnits="userSpaceOnUse">
<stop offset="0.19" stop-color="#3D065F"/>
<stop offset="0.93" stop-color="#3D065F"/>
</linearGradient>
<linearGradient id="paint58_linear" x1="29690.9" y1="10669.4" x2="32269.9" y2="13228.7" gradientUnits="userSpaceOnUse">
<stop offset="0.19" stop-color="#3D065F"/>
<stop offset="0.93" stop-color="#3D065F"/>
</linearGradient>
<linearGradient id="paint59_linear" x1="28824.2" y1="10370.2" x2="31245.5" y2="12771" gradientUnits="userSpaceOnUse">
<stop offset="0.19" stop-color="#3D065F"/>
<stop offset="0.93" stop-color="#3D065F"/>
</linearGradient>
<linearGradient id="paint60_linear" x1="27965.9" y1="10062.5" x2="30231.5" y2="12310.9" gradientUnits="userSpaceOnUse">
<stop offset="0.19" stop-color="#3D065F"/>
<stop offset="0.93" stop-color="#3D065F"/>
</linearGradient>
<linearGradient id="paint61_linear" x1="27093.4" y1="9759.95" x2="29209.2" y2="11859.8" gradientUnits="userSpaceOnUse">
<stop offset="0.19" stop-color="#3D065F"/>
<stop offset="0.93" stop-color="#3D065F"/>
</linearGradient>
<linearGradient id="paint62_linear" x1="26227.5" y1="9455.94" x2="28200.2" y2="11413.7" gradientUnits="userSpaceOnUse">
<stop offset="0.19" stop-color="#3D065F"/>
<stop offset="0.93" stop-color="#3D065F"/>
</linearGradient>
<radialGradient id="paint63_radial" cx="0" cy="0" r="1" gradientUnits="userSpaceOnUse" gradientTransform="translate(550.638 277.39) scale(106.95 106.869)">
<stop offset="0.01" stop-color="white"/>
<stop offset="0.16" stop-color="#E6D7F0"/>
<stop offset="0.28" stop-color="#D7BDE7"/>
<stop offset="0.36" stop-color="#D1B4E3"/>
<stop offset="0.48" stop-color="#C4A4DC"/>
<stop offset="0.71" stop-color="#A17BC9"/>
<stop offset="0.72" stop-color="#9F79C8"/>
<stop offset="0.81" stop-color="#A37CC9"/>
<stop offset="0.9" stop-color="#AE84CC"/>
<stop offset="0.91" stop-color="#B086CC"/>
<stop offset="0.96" stop-color="#AD84CB"/>
<stop offset="0.99" stop-color="#A57DC9"/>
<stop offset="1" stop-color="#9F79C8"/>
</radialGradient>
<linearGradient id="paint64_linear" x1="38913.5" y1="-21536.5" x2="42727.5" y2="-21536.5" gradientUnits="userSpaceOnUse">
<stop offset="0.02" stop-color="#45108A"/>
<stop offset="0.29" stop-color="#3D065F"/>
<stop offset="1" stop-color="#10054D"/>
</linearGradient>
<radialGradient id="paint65_radial" cx="0" cy="0" r="1" gradientUnits="userSpaceOnUse" gradientTransform="translate(609.149 396.598) scale(25.8616 25.8419)">
<stop offset="0.04" stop-color="#6115A3"/>
<stop offset="0.1" stop-color="#5A139A"/>
<stop offset="0.52" stop-color="#2B0658"/>
<stop offset="1" stop-color="#10054D"/>
</radialGradient>
<linearGradient id="paint66_linear" x1="18290.3" y1="-11602.7" x2="19313.2" y2="-11534" gradientUnits="userSpaceOnUse">
<stop offset="0.01" stop-color="#C1A1D5"/>
<stop offset="0.05" stop-color="#C8ABDA"/>
<stop offset="0.11" stop-color="#DAC6E6"/>
<stop offset="0.2" stop-color="#F7F2F9"/>
<stop offset="0.22" stop-color="white"/>
<stop offset="0.25" stop-color="#F9F5FB"/>
<stop offset="0.3" stop-color="#E9DBF2"/>
<stop offset="0.36" stop-color="#D1B4E3"/>
<stop offset="0.43" stop-color="#B395D6"/>
<stop offset="0.49" stop-color="#9C7DCB"/>
<stop offset="0.56" stop-color="#8E6EC5"/>
<stop offset="0.61" stop-color="#8969C3"/>
<stop offset="0.76" stop-color="#9471C6"/>
<stop offset="1" stop-color="#B086CC"/>
</linearGradient>
<radialGradient id="paint67_radial" cx="0" cy="0" r="1" gradientUnits="userSpaceOnUse" gradientTransform="translate(18395 -11832.9) scale(714.589 1309.99)">
<stop offset="0.38" stop-color="white"/>
<stop offset="0.47" stop-color="#F4F2F9"/>
<stop offset="0.63" stop-color="#D8D0E8"/>
<stop offset="0.85" stop-color="#AA99CC"/>
<stop offset="1" stop-color="#8770B8"/>
</radialGradient>
<radialGradient id="paint68_radial" cx="0" cy="0" r="1" gradientUnits="userSpaceOnUse" gradientTransform="translate(601.446 364.782) rotate(-30.6806) scale(8.82178 19.9675)">
<stop stop-color="#972A74"/>
<stop offset="0.04" stop-color="#8A266A"/>
<stop offset="0.19" stop-color="#601B4A"/>
<stop offset="0.35" stop-color="#3D112F"/>
<stop offset="0.51" stop-color="#230A1B"/>
<stop offset="0.67" stop-color="#0F040C"/>
<stop offset="0.83" stop-color="#040103"/>
<stop offset="1"/>
</radialGradient>
<radialGradient id="paint69_radial" cx="0" cy="0" r="1" gradientUnits="userSpaceOnUse" gradientTransform="translate(650.962 353.479) rotate(-23.7898) scale(9.20027 20.7616)">
<stop stop-color="#481437"/>
<stop offset="0.07" stop-color="#3D112F"/>
<stop offset="0.3" stop-color="#220A1A"/>
<stop offset="0.52" stop-color="#0F040C"/>
<stop offset="0.76" stop-color="#040103"/>
<stop offset="1"/>
</radialGradient>
<linearGradient id="paint70_linear" x1="23755.2" y1="-4902.29" x2="24965.6" y2="-4902.29" gradientUnits="userSpaceOnUse">
<stop offset="0.01" stop-color="#C1A1D5"/>
<stop offset="0.05" stop-color="#C8ABDA"/>
<stop offset="0.11" stop-color="#DAC6E6"/>
<stop offset="0.2" stop-color="#F7F2F9"/>
<stop offset="0.22" stop-color="white"/>
<stop offset="0.25" stop-color="#F9F5FB"/>
<stop offset="0.3" stop-color="#E9DBF2"/>
<stop offset="0.36" stop-color="#D1B4E3"/>
<stop offset="0.43" stop-color="#B395D6"/>
<stop offset="0.49" stop-color="#9C7DCB"/>
<stop offset="0.56" stop-color="#8E6EC5"/>
<stop offset="0.61" stop-color="#8969C3"/>
<stop offset="0.76" stop-color="#9471C6"/>
<stop offset="1" stop-color="#B086CC"/>
</linearGradient>
<linearGradient id="paint71_linear" x1="552.07" y1="223.474" x2="587.895" y2="244.172" gradientUnits="userSpaceOnUse">
<stop offset="0.08" stop-color="white"/>
<stop offset="0.21" stop-color="#F9F5FB"/>
<stop offset="0.44" stop-color="#E8DBF0"/>
<stop offset="0.74" stop-color="#CCB1DE"/>
<stop offset="1" stop-color="#B086CC"/>
</linearGradient>
<linearGradient id="paint72_linear" x1="4114.56" y1="-10020.5" x2="4141.59" y2="-10020.5" gradientUnits="userSpaceOnUse">
<stop offset="0.01" stop-color="#C1A1D5"/>
<stop offset="0.05" stop-color="#C8ABDA"/>
<stop offset="0.11" stop-color="#DAC6E6"/>
<stop offset="0.2" stop-color="#F7F2F9"/>
<stop offset="0.22" stop-color="white"/>
<stop offset="0.25" stop-color="#F9F5FB"/>
<stop offset="0.3" stop-color="#E9DBF2"/>
<stop offset="0.36" stop-color="#D1B4E3"/>
<stop offset="0.43" stop-color="#B395D6"/>
<stop offset="0.49" stop-color="#9C7DCB"/>
<stop offset="0.56" stop-color="#8E6EC5"/>
<stop offset="0.61" stop-color="#8969C3"/>
<stop offset="0.76" stop-color="#9471C6"/>
<stop offset="1" stop-color="#B086CC"/>
</linearGradient>
<radialGradient id="paint73_radial" cx="0" cy="0" r="1" gradientUnits="userSpaceOnUse" gradientTransform="translate(11058.1 -6449.75) scale(161.176 161.053)">
<stop offset="0.01" stop-color="white"/>
<stop offset="0.16" stop-color="#E6D7F0"/>
<stop offset="0.28" stop-color="#D7BDE7"/>
<stop offset="0.36" stop-color="#D1B4E3"/>
<stop offset="0.48" stop-color="#C4A4DC"/>
<stop offset="0.71" stop-color="#A17BC9"/>
<stop offset="0.72" stop-color="#9F79C8"/>
<stop offset="0.81" stop-color="#A37CC9"/>
<stop offset="0.9" stop-color="#AE84CC"/>
<stop offset="0.91" stop-color="#B086CC"/>
<stop offset="0.96" stop-color="#AD84CB"/>
<stop offset="0.99" stop-color="#A57DC9"/>
<stop offset="1" stop-color="#9F79C8"/>
</radialGradient>
<radialGradient id="paint74_radial" cx="0" cy="0" r="1" gradientUnits="userSpaceOnUse" gradientTransform="translate(49632.1 -27804.4) scale(3189.8 3187.36)">
<stop stop-color="#972A74"/>
<stop offset="0.04" stop-color="#8A266A"/>
<stop offset="0.19" stop-color="#601B4A"/>
<stop offset="0.35" stop-color="#3D112F"/>
<stop offset="0.51" stop-color="#230A1B"/>
<stop offset="0.67" stop-color="#0F040C"/>
<stop offset="0.83" stop-color="#040103"/>
<stop offset="1"/>
</radialGradient>
<radialGradient id="paint75_radial" cx="0" cy="0" r="1" gradientUnits="userSpaceOnUse" gradientTransform="translate(514.438 292.332) scale(21.2065 21.1904)">
<stop stop-color="#43E8E1"/>
<stop offset="0.14" stop-color="#34B5B0"/>
<stop offset="0.3" stop-color="#257F7B"/>
<stop offset="0.46" stop-color="#17514F"/>
<stop offset="0.62" stop-color="#0D2E2D"/>
<stop offset="0.76" stop-color="#061514"/>
<stop offset="0.89" stop-color="#020505"/>
<stop offset="1"/>
</radialGradient>
<radialGradient id="paint76_radial" cx="0" cy="0" r="1" gradientUnits="userSpaceOnUse" gradientTransform="translate(14443.2 8218.86) scale(539.069 538.659)">
<stop stop-color="#43E8E1"/>
<stop offset="0.14" stop-color="#34B5B0"/>
<stop offset="0.3" stop-color="#257F7B"/>
<stop offset="0.46" stop-color="#17514F"/>
<stop offset="0.62" stop-color="#0D2E2D"/>
<stop offset="0.76" stop-color="#061514"/>
<stop offset="0.89" stop-color="#020505"/>
<stop offset="1"/>
</radialGradient>
<radialGradient id="paint77_radial" cx="0" cy="0" r="1" gradientUnits="userSpaceOnUse" gradientTransform="translate(533.269 437.242) rotate(-15.244) scale(15.4046 67.4396)">
<stop stop-color="#972A74"/>
<stop offset="0.02" stop-color="#8C276C"/>
<stop offset="0.11" stop-color="#671D4F"/>
<stop offset="0.21" stop-color="#471437"/>
<stop offset="0.32" stop-color="#2D0D23"/>
<stop offset="0.43" stop-color="#190713"/>
<stop offset="0.57" stop-color="#0B0308"/>
<stop offset="0.73" stop-color="#020102"/>
<stop offset="1"/>
</radialGradient>
<linearGradient id="paint78_linear" x1="-90339.2" y1="-721.108" x2="-90144.9" y2="-382.318" gradientUnits="userSpaceOnUse">
<stop offset="0.02" stop-color="#45108A"/>
<stop offset="0.29" stop-color="#3D065F"/>
<stop offset="1" stop-color="#10054D"/>
</linearGradient>
<linearGradient id="paint79_linear" x1="373.475" y1="270.523" x2="426.153" y2="209.013" gradientUnits="userSpaceOnUse">
<stop stop-color="#43E8E1"/>
<stop offset="0.09" stop-color="#36BDB7"/>
<stop offset="0.22" stop-color="#288B87"/>
<stop offset="0.34" stop-color="#1C605D"/>
<stop offset="0.47" stop-color="#123E3C"/>
<stop offset="0.6" stop-color="#0A2321"/>
<stop offset="0.73" stop-color="#040F0F"/>
<stop offset="0.86" stop-color="#010404"/>
<stop offset="1"/>
</linearGradient>
<linearGradient id="paint80_linear" x1="286.513" y1="132.377" x2="491.545" y2="363.826" gradientUnits="userSpaceOnUse">
<stop stop-color="#4EC1DE"/>
<stop offset="0.24" stop-color="#4DC4DE"/>
<stop offset="0.45" stop-color="#49CFDE"/>
<stop offset="0.64" stop-color="#43E1DE"/>
<stop offset="0.65" stop-color="#43E2DE"/>
<stop offset="0.77" stop-color="#3DABC8"/>
<stop offset="0.84" stop-color="#3A91BD"/>
<stop offset="0.88" stop-color="#3B96BF"/>
<stop offset="1" stop-color="#3CA0C3"/>
</linearGradient>
<linearGradient id="paint81_linear" x1="38287.4" y1="-37698.2" x2="124267" y2="-51080.7" gradientUnits="userSpaceOnUse">
<stop offset="0.04" stop-color="#138BBD"/>
<stop offset="0.23" stop-color="#169AC7"/>
<stop offset="0.59" stop-color="#1FC3DF"/>
<stop offset="1" stop-color="#2AF6FF"/>
</linearGradient>
<radialGradient id="paint82_radial" cx="0" cy="0" r="1" gradientUnits="userSpaceOnUse" gradientTransform="translate(106856 -71140.1) scale(14970.4 15069.9)">
<stop stop-color="white"/>
<stop offset="1"/>
</radialGradient>
</defs>
</svg>
